<svg width="512" height="512" xmlns="http://www.w3.org/2000/svg"><g fill="#0084F4" fill-rule="nonzero"><path d="M132.38 109.326a50.984 50.984 0 00-36.767-15.509h-2.637a50.984 50.984 0 00-36.725 15.509 47.024 47.024 0 00-13.289 34.884l1.002 23.027c1.518 26.351 23.589 46.804 50.005 46.338h.65c26.417.466 48.488-19.987 50.006-46.338l1.044-23.027a47.024 47.024 0 00-13.289-34.884zm-4.863 57.201c-1.16 17.176-15.672 30.382-32.897 29.94h-.651c-17.226.442-31.737-12.764-32.897-29.94l-.3-6.988a77.319 77.319 0 0044.765-16.784 38.24 38.24 0 0022.33 15.646l-.35 8.126zm-10.738-40.435a8.557 8.557 0 00-6.85-7.288 8.49 8.49 0 00-9.093 4.106c-.111.18-10.737 16.971-40.723 19.537a30.151 30.151 0 018.494-21.257 33.865 33.865 0 0124.369-10.265h2.637a33.865 33.865 0 0124.369 10.265 30.13 30.13 0 018.357 19.213 20.242 20.242 0 01-11.56-14.311zM464.731 313.926a50.984 50.984 0 00-36.767-15.509h-2.637a50.984 50.984 0 00-36.725 15.51 47.02 47.02 0 00-13.289 34.883l1.002 23.028c1.518 26.35 23.589 46.804 50.005 46.337h.65c26.417.467 48.488-19.986 50.006-46.337l1.044-23.028a47.025 47.025 0 00-13.289-34.884zm-3.836 34.191l-1.027 23.01c-1.16 17.176-15.672 30.383-32.897 29.94h-.651c-17.226.443-31.737-12.764-32.897-29.94l-1.028-23.053a30.175 30.175 0 018.563-22.283 33.865 33.865 0 0124.369-10.265h2.637a33.865 33.865 0 0124.369 10.265 30.179 30.179 0 018.562 22.326z"/><path d="M263.281 124.416c-9.144-8.861-23.657-8.861-32.801 0l-95.148 95.324a8.516 8.516 0 01-6.034 2.502H42.614C19.09 222.27.028 241.368 0 264.934v119.54c0 14.146 11.447 25.615 25.568 25.615 2.903 0 5.785-.494 8.523-1.46v9.998c0 4.716 3.816 8.539 8.523 8.539h102.272c4.707 0 8.523-3.823 8.523-8.539V280.184a8.552 8.552 0 012.284-5.823l108.145-116.525c9.058-9.382 8.809-24.344-.557-33.42zm-11.615 21.48l-.093.089L143.182 262.74a25.644 25.644 0 00-6.819 17.444V410.09H51.136V282.01c0-4.715-3.816-8.538-8.522-8.538-4.707 0-8.523 3.823-8.523 8.538v102.462c0 4.716-3.816 8.539-8.523 8.539s-8.523-3.823-8.523-8.539V264.934c0-14.147 11.447-25.615 25.569-25.615h86.684a25.358 25.358 0 0018.085-7.505l95.148-95.324a6.716 6.716 0 019.255 0 6.66 6.66 0 01-.12 9.406z"/><path d="M94.316 247.517c-4.685 0-8.484 3.83-8.484 8.554v102.657c0 4.724 3.799 8.555 8.484 8.555 4.685 0 8.483-3.83 8.483-8.555V256.07c0-4.724-3.798-8.554-8.483-8.554zM277.092 313.926a51.015 51.015 0 00-36.74-15.509h-2.638a51.015 51.015 0 00-36.74 15.509 47.01 47.01 0 00-13.294 34.884l1.002 23.028c1.518 26.35 23.598 46.804 50.026 46.337h.65c26.428.467 48.508-19.986 50.026-46.337l1.003-23.028a47.01 47.01 0 00-13.295-34.884zm-3.795 34.191l-1.028 23.01c-1.16 17.176-15.678 30.383-32.91 29.94h-.651c-17.233.443-31.75-12.764-32.911-29.94l-1.028-23.053a30.168 30.168 0 018.566-22.283 33.886 33.886 0 0124.379-10.265h2.638a33.886 33.886 0 0124.38 10.265 30.172 30.172 0 018.565 22.326zM283.125 427.166H194.94c-22.767.023-41.218 18.366-41.241 41v35.35c0 4.686 3.82 8.484 8.533 8.484 4.713 0 8.533-3.798 8.533-8.483v-35.35c.014-13.269 10.83-24.02 24.175-24.034h88.184c13.346.013 24.16 10.765 24.175 24.033v35.35c0 4.686 3.82 8.484 8.533 8.484 4.713 0 8.533-3.798 8.533-8.483v-35.35c-.023-22.635-18.474-40.978-41.241-41.001zM470.758 427.166h-88.183c-22.767.023-41.218 18.366-41.242 41v35.35c0 4.686 3.821 8.484 8.534 8.484 4.712 0 8.533-3.798 8.533-8.483v-35.35c.014-13.269 10.83-24.02 24.175-24.034h88.183c13.347.013 24.161 10.765 24.175 24.033v35.35c0 4.686 3.821 8.484 8.534 8.484 4.712 0 8.533-3.798 8.533-8.483v-35.35c-.023-22.635-18.475-40.978-41.242-41.001zM486.793 0H186.891c-14.03.136-25.305 11.581-25.206 25.586v127.932c0 4.71 3.826 8.53 8.545 8.53 4.718 0 8.544-3.82 8.544-8.53V51.173H494.91v204.69c.11 4.59-3.519 8.404-8.117 8.53H195.222c-4.719 0-8.545 3.818-8.545 8.528 0 4.71 3.826 8.53 8.545 8.53h291.571c14.03-.137 25.305-11.582 25.206-25.587V25.586C512.098 11.581 500.824.136 486.793 0zm8.12 34.115H178.772v-8.529c-.108-4.59 3.521-8.403 8.119-8.528h299.902c4.598.125 8.227 3.939 8.12 8.528v8.53z"/><path d="M469.583 108.788c-4.685 0-8.484 3.822-8.484 8.537v121.654c0 4.715 3.799 8.538 8.484 8.538 4.685 0 8.483-3.823 8.483-8.538V117.325c0-4.715-3.798-8.537-8.483-8.537zM434.651 161.684c-4.685 0-8.483 3.843-8.483 8.583v68.666c0 4.74 3.798 8.584 8.483 8.584 4.685 0 8.484-3.844 8.484-8.584v-68.666c0-4.74-3.799-8.583-8.484-8.583zM400.717 144.717c-4.685 0-8.483 3.836-8.483 8.567v85.666c0 4.73 3.798 8.567 8.483 8.567 4.685 0 8.484-3.836 8.484-8.567v-85.666c0-4.731-3.799-8.567-8.484-8.567zM366.784 196.616a8.484 8.484 0 00-8.484 8.483v33.934a8.484 8.484 0 0016.967 0V205.1a8.484 8.484 0 00-8.483-8.483z"/><path d="M474.265 69.305a8.536 8.536 0 00-11.844 2.367l-29.15 43.754-26.932-20.21a8.534 8.534 0 00-12.808 3.016l-33.25 66.562-32.498 24.424c-3.773 2.831-4.538 8.187-1.708 11.963a8.534 8.534 0 0011.954 1.71l34.155-25.637a8.614 8.614 0 002.562-3.017l29.57-59.204 25.931 19.492a8.534 8.534 0 0012.228-2.093l34.155-51.274c2.617-3.927 1.558-9.234-2.365-11.853zM306.83 67.867H204.172c-4.725 0-8.555 3.799-8.555 8.484 0 4.685 3.83 8.483 8.555 8.483h102.656c4.725 0 8.555-3.798 8.555-8.483 0-4.685-3.83-8.484-8.555-8.484zM358.8 67.867h-16.968a8.484 8.484 0 000 16.967H358.8a8.484 8.484 0 000-16.967z"/></g></svg>