<svg width="512" height="512" xmlns="http://www.w3.org/2000/svg"><g fill="#0084F4" fill-rule="nonzero"><path d="M151.804 221.84l-.019.328c-1.261 22.268 11.117 43.128 31.543 53.13l.21.102a37.287 37.287 0 0116.828 16.31l.083.155c10.293 19.75 31.58 31.72 54.274 30.52l.344-.02a39.289 39.289 0 0123.364 6.122 58.854 58.854 0 0062.825 0 39.289 39.289 0 0123.363-6.121l.345.018c22.656 1.21 43.972-10.77 54.287-30.551l.051-.108a37.355 37.355 0 0116.88-16.343l.167-.085c20.427-10.006 32.809-30.861 31.543-53.134l-.019-.31a35.835 35.835 0 016.154-22.084c12.704-18.67 12.704-43.288.005-61.962a35.833 35.833 0 01-6.159-22.075l.019-.329c1.266-22.272-11.116-43.128-31.561-53.138l-.187-.094a37.252 37.252 0 01-16.804-16.254l-.107-.211c-10.297-19.749-31.613-31.715-54.27-30.52l-.348.02a39.26 39.26 0 01-23.355-6.122h-.009a58.854 58.854 0 00-62.825 0 39.318 39.318 0 01-23.363 6.117l-.345-.019c-22.66-1.21-43.972 10.77-54.264 30.514l-.08.146a37.309 37.309 0 01-16.846 16.334l-.195.093c-20.427 10.001-32.81 30.862-31.543 53.134l.019.31a35.813 35.813 0 01-6.154 22.08c-12.704 18.674-12.704 43.297 0 61.967a35.81 35.81 0 016.15 22.08zm9.543-73.136a55.238 55.238 0 009.496-34.075l-.018-.328c-.67-14.758 7.55-28.465 20.822-34.736l.163-.08c10.888-5.254 19.802-13.904 25.426-24.665l.093-.178c6.838-13.125 21.162-21.081 36.374-20.265l.335.014a58.066 58.066 0 0034.55-9.048 39.81 39.81 0 0142.501 0 58.198 58.198 0 0034.545 9.053l.335-.019c15.288-.807 29.541 7.14 36.361 20.227l.126.24c5.623 10.746 14.528 19.382 25.402 24.632l.159.08c13.48 6.604 21.664 20.24 20.84 34.75l-.018.342a55.228 55.228 0 009.5 34.07c8.23 12.098 8.226 28.047-.009 40.14a55.287 55.287 0 00-9.491 34.08l.018.323c.824 14.509-7.36 28.15-20.845 34.76l-.14.065a56.393 56.393 0 00-25.449 24.702l-.07.141c-6.843 13.125-21.143 21.086-36.379 20.265l-.33-.019a58.174 58.174 0 00-34.56 9.054 39.812 39.812 0 01-42.491 0 58.096 58.096 0 00-31.32-9.143 57.41 57.41 0 00-3.235.09l-.335.013c-15.012.962-29.215-6.956-36.388-20.283l-.098-.183a56.262 56.262 0 00-25.384-24.623l-.177-.089c-13.486-6.605-21.67-20.246-20.84-34.75l.018-.342a55.28 55.28 0 00-9.501-34.07c-8.226-12.098-8.22-28.047.014-40.136v-.01z"/><path d="M248.298 268.39c4.464 2.817 10.344 1.439 13.133-3.071L374.375 82.534a9.718 9.718 0 00.396-9.679 9.528 9.528 0 00-8.138-5.13 9.511 9.511 0 00-8.435 4.608l-112.94 182.785c-2.789 4.515-1.43 10.455 3.04 13.272zM258.537 168.273c23.246 0 42.161-21.636 42.161-48.227 0-26.592-18.915-48.222-42.16-48.222-23.246 0-42.157 21.63-42.157 48.222 0 26.591 18.91 48.227 42.156 48.227zm0-77.297c12.72 0 23.069 13.04 23.069 29.07 0 16.029-10.348 29.074-23.069 29.074-12.716 0-23.064-13.05-23.064-29.074s10.348-29.07 23.064-29.07zM318.984 216.497c0 26.593 18.91 48.224 42.157 48.224 23.245 0 42.16-21.636 42.16-48.224 0-26.584-18.91-48.224-42.156-48.224-23.25 0-42.16 21.626-42.16 48.224zm65.225 0c0 16.03-10.348 29.071-23.068 29.071-12.716 0-23.064-13.041-23.064-29.071s10.348-29.071 23.064-29.071c12.72 0 23.068 13.032 23.068 29.071zM510.763 375.929c-12.623-22.594-40.615-31.2-63.585-19.548l-74.672 35.584c-10.31-19.336-30.087-31.645-51.851-32.265l-68.933-1.915a72.38 72.38 0 01-31.33-8.159l-7.014-3.666a122.791 122.791 0 00-114.598.122l.438-16.027c.144-5.31-4.003-9.731-9.268-9.877l-75.588-2.098c-5.265-.146-9.645 4.037-9.789 9.346L.003 494.73c-.14 5.31 4.007 9.732 9.271 9.877l75.59 2.099h.264c5.162-.005 9.384-4.15 9.528-9.352l.214-8.003 19.638-10.605a33.44 33.44 0 0125.143-2.774l117.26 33.194c.205.06.41.108.62.154A124.513 124.513 0 00283.307 512a126.275 126.275 0 0053.131-11.694c.41-.188.805-.403 1.182-.648l170.02-110.923c4.24-2.76 5.608-8.38 3.123-12.806zM19.328 485.646l4.04-148.075 56.533 1.568-4.044 148.08-56.53-1.573zm308.518-2.521a107.202 107.202 0 01-66.094 7.436l-116.948-33.1a52.29 52.29 0 00-39.294 4.333l-10.035 5.417 2.69-98.455c31.795-21.332 72.578-23.524 106.444-5.727l7.014 3.666a91.403 91.403 0 0039.577 10.309l68.933 1.915c19.363.559 35.807 14.463 39.736 33.598l-102.678-2.85c-5.264-.145-9.644 4.037-9.789 9.347-.144 5.309 4.003 9.731 9.268 9.877l113.313 3.145h.27c5.157-.005 9.379-4.15 9.523-9.351a61.863 61.863 0 00-.922-12.473l76.576-36.5.224-.107c10.863-5.549 24.003-3.695 32.935 4.647L327.846 483.125z"/></g></svg>