<svg width="512" height="511" xmlns="http://www.w3.org/2000/svg"><g fill="#0084F4" fill-rule="nonzero"><path d="M85.072 454.044a10.077 10.077 0 00-7.069-2.924c-2.63 0-5.21 1.067-7.07 2.924a10.048 10.048 0 00-2.93 7.056c0 2.625 1.069 5.2 2.93 7.056a10.087 10.087 0 007.07 2.925c2.63 0 5.21-1.068 7.069-2.925a10.043 10.043 0 002.931-7.056c0-2.624-1.07-5.2-2.931-7.056zM469.524 182.581a10.064 10.064 0 00-7.07-2.924c-2.63 0-5.21 1.067-7.07 2.924a10.05 10.05 0 00-2.93 7.057c0 2.624 1.07 5.2 2.93 7.055a10.087 10.087 0 007.07 2.925c2.64 0 5.21-1.068 7.07-2.925a10.013 10.013 0 002.939-7.055c0-2.625-1.07-5.2-2.939-7.057z"/><path d="M509.065 2.923A10.016 10.016 0 00501.992 0L255.998.013c-5.522 0-9.999 4.47-9.999 9.98v28.542l-94.789 25.35c-5.335 1.426-8.501 6.899-7.071 12.222l49.127 182.985-42.499 42.416c-5.409-7.882-14.491-13.066-24.764-13.066H30.006c-16.542 0-29.999 13.431-29.999 29.94V481.06c0 16.51 13.457 29.943 29.999 29.943h95.998c14.053 0 25.875-9.698 29.115-22.737l11.89 10.35a50.44 50.44 0 0033.118 12.387h301.867c5.522 0 10-4.47 10-9.98V9.98a9.972 9.972 0 00-2.929-7.058zM136.003 481.061c0 5.503-4.487 9.98-10.001 9.98H30.005c-5.514 0-10-4.476-10-9.98V318.383c0-5.503 4.486-9.98 10-9.98h37.999v114.97c0 5.511 4.478 9.98 10 9.98s10-4.469 10-9.98v-114.97h37.999c5.514 0 10 4.477 10 9.98v162.678zm30.042-400.48L245.999 59.2v36.983l-6.702 1.793a9.995 9.995 0 00-6.072 4.65 9.96 9.96 0 00-.999 7.573c3.843 14.313-4.698 29.077-19.039 32.912a9.996 9.996 0 00-6.077 4.66 9.964 9.964 0 00-.989 7.584L245.1 299.41h-20.07l-10.343-40.385a9.957 9.957 0 00-1.676-3.5L166.045 80.582zm79.954 61.37v84.217l-18.239-67.403a46.813 46.813 0 0018.239-16.813zm143.664 349.09H200.125a30.422 30.422 0 01-19.974-7.47l-24.149-21.02V324.513l43.658-43.573 7.918 30.92a9.996 9.996 0 009.688 7.508l196.604.012c7.72 0 14 6.268 14 13.973 0 7.705-6.28 13.973-14 13.973H313.13c-5.522 0-10 4.469-10 9.98s4.478 9.98 10 9.98h132.04c7.72 0 14 6.268 14 13.973 0 7.705-6.28 13.973-14 13.973H313.13c-5.522 0-10 4.47-10 9.98 0 5.512 4.478 9.981 10 9.981h110.643c7.72 0 14 6.268 14 13.973 0 7.705-6.28 13.972-14 13.972H313.13c-5.522 0-10 4.47-10 9.981s4.478 9.98 10 9.98h76.533c7.72 0 14 6.268 14 13.973-.001 7.701-6.281 13.969-14 13.969zm102.331 0h-71.36a33.669 33.669 0 003.028-13.973c0-4.98-1.089-9.708-3.028-13.972h3.139c18.747 0 33.999-15.223 33.999-33.933a33.658 33.658 0 00-3.609-15.188c14.396-3.946 25.005-17.115 25.005-32.718 0-7.569-2.498-14.566-6.711-20.215V234.549c0-5.511-4.478-9.98-10-9.98s-10 4.469-10 9.98v113.57a34.071 34.071 0 00-7.289-.793h-.328a33.669 33.669 0 003.028-13.973c0-18.712-15.252-33.933-33.999-33.933h-16.075c17.069-7.306 29.057-24.238 29.057-43.919 0-26.338-21.468-47.765-47.857-47.765-26.388 0-47.857 21.427-47.857 47.765 0 19.68 11.989 36.613 29.057 43.92h-54.663V109.648c17.864-3.886 31.96-17.953 35.852-35.783h75.221c3.892 17.83 17.988 31.897 35.852 35.783v31.03c0 5.51 4.478 9.98 10 9.98s10-4.47 10-9.98v-39.94c0-5.512-4.478-9.981-10-9.981-14.847 0-26.924-12.056-26.924-26.873 0-5.511-4.478-9.98-10-9.98h-93.076c-5.522 0-10 4.469-10 9.98 0 14.818-12.078 26.873-26.924 26.873-5.522 0-10 4.469-10 9.98V299.42H266V19.972l225.994-.011v471.08zM378.996 283.305c-15.361 0-27.857-12.473-27.857-27.803s12.497-27.804 27.857-27.804 27.857 12.473 27.857 27.803-12.496 27.804-27.857 27.804z"/></g></svg>