<svg width="511" height="512" xmlns="http://www.w3.org/2000/svg"><g fill="#0084F4" fill-rule="nonzero"><path d="M177.454 206.922c3.903-3.91 3.903-10.242 0-14.14-3.89-3.91-10.21-3.91-14.113 0-3.902 3.898-3.902 10.23 0 14.14 3.903 3.898 10.222 3.898 14.113 0zM276.261 221.063c11.673-11.696 11.673-30.727 0-42.422-11.7-11.723-30.647-11.727-42.347 0-11.703 11.722-11.703 30.695 0 42.422 11.673 11.695 30.67 11.699 42.347 0zm-28.234-28.282a9.973 9.973 0 0114.121 0c3.887 3.899 3.887 10.239 0 14.137-3.895 3.898-10.23 3.902-14.12 0a9.998 9.998 0 010-14.137zM233.914 291.766c-11.703 11.726-11.703 30.707 0 42.433 11.7 11.723 30.644 11.727 42.347 0 11.677-11.699 11.677-30.734 0-42.433-11.7-11.72-30.647-11.723-42.347 0zm28.234 28.293c-3.902 3.906-10.222 3.906-14.12 0-3.895-3.903-3.911-10.23 0-14.149a9.969 9.969 0 0114.12 0c3.891 3.899 3.891 10.246 0 14.149zM174.725 272.52c1.08 5.421 6.343 8.925 11.743 7.843l141.142-28.289c5.404-1.082 8.909-6.351 7.829-11.765-1.08-5.418-6.34-8.926-11.743-7.844l-141.142 28.289c-5.408 1.082-8.913 6.351-7.829 11.766z"/><path d="M303.415 56.574a9.966 9.966 0 00-7.056 2.926L191.575 164.488c-3.899 3.907-3.899 10.239 0 14.145 3.899 3.906 10.218 3.906 14.113 0l97.727-97.918 127.026 127.277-224.063 224.5L79.348 305.22l69.884-70.02c3.899-3.902 3.899-10.234 0-14.14a9.975 9.975 0 00-14.117 0l-76.936 77.09c-3.898 3.902-3.898 10.234 0 14.14l141.143 141.418a9.963 9.963 0 0014.113 0l238.179-238.644c3.899-3.907 3.899-10.239 0-14.145L310.472 59.5a9.966 9.966 0 00-7.057-2.926z"/><path d="M493.961 2.934l-42.838 42.918c-24.994-18.91-59.509-19.22-84.293-.782L331.743 8.895l-.102-.102C320-2.871 301.068-2.997 289.287 8.809L8.776 291.079c-11.7 11.722-11.704 30.706 0 42.433l39.587 39.66c-8.843 25.355-2.464 54.101 16.869 73.465 19.33 19.375 48.02 25.761 73.326 16.91l39.586 39.66c11.7 11.723 30.655 11.719 42.332.016l281.75-281.09c11.704-11.727 11.704-30.7 0-42.422l-.101-.102-36.102-35.148c18.336-24.664 18.265-59.262-.783-84.465l42.834-42.918c3.899-3.906 3.899-10.238 0-14.144a9.963 9.963 0 00-14.113 0zM445.275 138a10.012 10.012 0 00.101 14.242l42.776 41.653c3.871 3.921 3.829 10.218-.027 14.078l-281.747 281.09c-3.895 3.902-10.23 3.902-14.12 0l-44.266-44.348a9.959 9.959 0 00-11.294-1.985c-19.193 9.024-42.242 4.91-57.35-10.238-15.118-15.137-19.223-38.226-10.217-57.457a10.014 10.014 0 00-1.977-11.32l-44.261-44.348c-3.895-3.902-3.895-10.246.011-14.164L303.42 22.933a9.96 9.96 0 0114.066-.042l41.568 42.859c3.727 3.844 10.109 4.219 14.218.105 17.084-17.125 43.836-18.953 63.544-5.668l-14.64 14.668c-11.13-5.312-24.877-3.363-34.078 5.856-11.672 11.7-11.672 30.734 0 42.43 11.7 11.722 30.648 11.726 42.351 0 9.412-9.43 11.06-23.262 5.856-34.157L450.94 74.32c13.157 19.516 11.64 46.344-5.665 63.68zM416.33 94.852c3.895 3.902 3.91 10.23 0 14.148a9.968 9.968 0 01-14.117 0c-3.894-3.902-3.894-10.25-.003-14.148 3.894-3.895 10.23-3.903 14.12 0z"/></g></svg>