<svg width="512" height="490" xmlns="http://www.w3.org/2000/svg"><g fill="#0084F4" fill-rule="nonzero"><path d="M380.77 402.529h-21.758V295.913c0-6.008-4.87-10.879-10.88-10.879-6.008 0-10.878 4.871-10.878 10.88v106.615H54.396V184.946h90.514c6.009 0 10.88-4.87 10.88-10.88 0-6.008-4.871-10.878-10.88-10.878H43.517c-6.009 0-10.88 4.87-10.88 10.879v228.462H10.88c-6.008 0-10.879 4.87-10.879 10.88v21.757c0 30.042 24.354 54.396 54.396 54.396h282.858c30.042 0 54.395-24.354 54.395-54.396v-21.758c0-6.008-4.87-10.879-10.879-10.879zm-10.879 32.637c0 18.026-14.612 32.638-32.637 32.638h-21.759v-10.88c0-6.008-4.87-10.878-10.879-10.878-6.008 0-10.879 4.87-10.879 10.879v10.879H97.912v-10.88c0-6.008-4.87-10.878-10.879-10.878-6.008 0-10.879 4.87-10.879 10.879v10.879H54.396c-18.025 0-32.638-14.612-32.638-32.638v-10.879h348.133v10.88zM381.043 65.275c3.402 0 6.607-1.612 8.648-4.351l32.433-43.516c3.582-4.807 2.614-11.626-2.162-15.231-4.777-3.605-11.553-2.63-15.135 2.176l-32.433 43.516c-3.583 4.807-2.614 11.626 2.162 15.23a10.766 10.766 0 006.487 2.176zM405.045 103.788a10.902 10.902 0 008.703 4.324c2.354 0 4.644-.759 6.527-2.162l43.516-32.433c4.807-3.583 5.781-10.36 2.176-15.136-3.605-4.776-10.424-5.744-15.23-2.162L407.22 88.652c-4.807 3.583-5.781 10.359-2.176 15.136zM511.744 128.206a10.77 10.77 0 00-4.671-7.065 10.955 10.955 0 00-8.377-1.556l-54.369 10.776c-6.005.595-10.386 5.903-9.786 11.854.6 5.952 5.956 10.294 11.961 9.7h2.175l54.368-10.777a10.88 10.88 0 007.129-4.63 10.697 10.697 0 001.57-8.302z"/><path d="M371.67 127.25a10.939 10.939 0 00-9.46-5.476 10.939 10.939 0 00-9.48 5.439 10.898 10.898 0 00-.022 10.915l48.058 82.999-174.362 65.267h-1.635l-28.334 16.317-18.853 10.878a21.83 21.83 0 01-16.564 2.176 21.79 21.79 0 01-13.186-10.117l-21.796-37.637c-5.323-10.223-1.739-22.816 8.173-28.718l37.706-21.756 27.245 47.102a10.901 10.901 0 009.48 5.439 10.901 10.901 0 009.47-5.42 10.86 10.86 0 00.012-10.897l-28.116-48.516L326.77 92.66l4.468 7.723c3.01 5.227 9.694 7.029 14.93 4.025 5.236-3.004 7.042-9.676 4.032-14.903l-10.897-18.819a10.897 10.897 0 00-7.52-5.221c-3.17-.597-6.443.24-8.936 2.284L170.281 193.28l-46.424 26.76c-17.134 9.962-25.374 30.21-20.052 49.277l-10.898 6.2c-11.483 6.583-17.854 19.43-16.135 32.536 1.718 13.106 11.188 23.883 23.982 27.293 2.773.733 5.63 1.1 8.5 1.088a33.394 33.394 0 0016.346-4.351l10.898-6.2a42.298 42.298 0 0019.07 11.312 41.372 41.372 0 0011.443 1.523 42.996 42.996 0 0021.796-5.874l9.48-5.439 21.796 37.747c9.018 15.563 28.949 20.914 44.572 11.965a32.642 32.642 0 0015.254-19.82 32.582 32.582 0 00-3.267-24.78l-19.834-34.482 163.465-61.243c3-1.126 5.353-3.513 6.43-6.527a10.86 10.86 0 00-.763-9.028l-54.27-93.986zM114.267 313.154a10.915 10.915 0 01-8.282 1.088 10.896 10.896 0 01-6.648-5.004 10.86 10.86 0 01-1.09-8.267 10.88 10.88 0 015.122-6.636l9.481-5.439 10.898 18.82-9.481 5.438zm143.413 30.458a10.86 10.86 0 011.09 8.268 10.881 10.881 0 01-5.122 6.526c-5.18 2.97-11.791 1.224-14.82-3.916l-21.796-37.746 18.09-10.334h.872l21.686 37.202z"/></g></svg>