<svg width="512" height="457" xmlns="http://www.w3.org/2000/svg"><g fill="#0084F4" fill-rule="nonzero"><path d="M511.874 36.061c0-19.803-15.209-35.914-33.902-35.914H33.9C15.208.147 0 16.258 0 36.061v324.755c0 19.803 15.208 35.913 33.901 35.913h185.157l-13.518 40h-26.15c-5.598 0-10.138 4.478-10.138 10s4.54 10 10.139 10h153.093c5.598 0 10.138-4.478 10.138-10s-4.54-10-10.138-10h-26.15l-13.518-40h185.157c18.693 0 33.901-16.11 33.901-35.913V36.061zm-491.597 0c0-8.775 6.112-15.914 13.624-15.914h444.072c7.511 0 13.624 7.139 13.624 15.914v239.086H20.277V36.061zM284.96 436.729h-58.046l13.52-40h31.007l13.519 40zm206.637-75.914c0 8.774-6.112 15.913-13.624 15.913H33.9c-7.511 0-13.624-7.139-13.624-15.913v-65.669h471.32v65.669z"/><path d="M255.937 363.559c15.732 0 28.53-12.623 28.53-28.14 0-15.517-12.798-28.14-28.53-28.14-15.732 0-28.53 12.623-28.53 28.14 0 15.517 12.798 28.14 28.53 28.14zm0-36.28c4.55 0 8.253 3.651 8.253 8.14 0 4.489-3.702 8.14-8.253 8.14s-8.253-3.651-8.253-8.14c0-4.489 3.702-8.14 8.253-8.14zM49.548 114.438c-5.598 0-10.138 4.478-10.138 10v122.356c0 5.522 4.54 10 10.138 10 5.599 0 10.139-4.478 10.139-10V124.438c0-5.523-4.539-10-10.139-10zM49.548 38.438c-5.598 0-10.138 4.478-10.138 10v39.469c0 5.522 4.54 10 10.138 10 5.599 0 10.139-4.478 10.139-10V48.438c0-5.523-4.539-10-10.139-10z"/></g></svg>